<?xml version="1.0" encoding="UTF-8" standalone="no"?>
<svg
   xmlns:dc="http://purl.org/dc/elements/1.1/"
   xmlns:cc="http://creativecommons.org/ns#"
   xmlns:rdf="http://www.w3.org/1999/02/22-rdf-syntax-ns#"
   xmlns:svg="http://www.w3.org/2000/svg"
   xmlns="http://www.w3.org/2000/svg"
   xmlns:sodipodi="http://sodipodi.sourceforge.net/DTD/sodipodi-0.dtd"
   xmlns:inkscape="http://www.inkscape.org/namespaces/inkscape"
   sodipodi:docname="qr-slides.svg"
   inkscape:version="1.0 (4035a4fb49, 2020-05-01)"
   width="39.158283mm"
   height="39.158283mm"
   viewBox="0 0 39.158283 39.158283"
   version="1.1"
   id="svg1010">
  <defs
     id="defs1004" />
  <sodipodi:namedview
     fit-margin-bottom="0"
     fit-margin-right="0"
     fit-margin-left="0"
     fit-margin-top="0"
     inkscape:window-maximized="0"
     inkscape:window-y="46"
     inkscape:window-x="0"
     inkscape:window-height="1034"
     inkscape:window-width="1920"
     showgrid="false"
     inkscape:document-rotation="0"
     inkscape:current-layer="layer1"
     inkscape:document-units="mm"
     inkscape:cy="64.323226"
     inkscape:cx="173.98497"
     inkscape:zoom="2.8"
     inkscape:pageshadow="2"
     inkscape:pageopacity="0.0"
     borderopacity="1.0"
     bordercolor="#666666"
     pagecolor="#ffffff"
     id="base" />
  <metadata
     id="metadata1007">
    <rdf:RDF>
      <cc:Work
         rdf:about="">
        <dc:format>image/svg+xml</dc:format>
        <dc:type
           rdf:resource="http://purl.org/dc/dcmitype/StillImage" />
        <dc:title></dc:title>
      </cc:Work>
    </rdf:RDF>
  </metadata>
  <g
     transform="translate(-105.833,-148.167)"
     id="layer1"
     inkscape:groupmode="layer"
     inkscape:label="Layer 1">
    <rect
       ry="5.2078986"
       id="rect1576"
       style="fill:#ffffff;stroke:none;stroke-width:0.264583"
       height="39.158283"
       width="39.158283"
       y="148.16701"
       x="105.833" />
    <g
       transform="matrix(0.264583,0,0,0.264583,105.833,148.167)"
       id="g1580"
       style="fill:#000000;stroke:none">
      <path
         id="path1578"
         d="m 131.6,132 h -3.2 c -0.22091,0 -0.4,-0.17909 -0.4,-0.4 v -3.2 c 0,-0.22091 0.17909,-0.4 0.4,-0.4 h 3.2 c 0.22091,0 0.4,0.17909 0.4,0.4 v 3.2 c 0,0.22091 -0.17909,0.4 -0.4,0.4 z m -16,0 H 96.4 C 96.179086,132 96,131.82091 96,131.6 V 120 h 3.6 c 0.220914,0 0.4,-0.17909 0.4,-0.4 v -3.2 c 0,-0.22091 -0.179086,-0.4 -0.4,-0.4 h -3.2 c -0.220914,0 -0.4,0.17909 -0.4,0.4 v 3.6 h -3.6 c -0.220914,0 -0.4,-0.17909 -0.4,-0.4 v -3.2 C 92,116.17909 91.820914,116 91.6,116 H 88 v -7.6 c 0,-0.22091 0.179086,-0.4 0.4,-0.4 h 7.2 c 0.220914,0 0.4,-0.17909 0.4,-0.4 v -3.2 C 96,104.17909 95.820914,104 95.6,104 H 92.4 C 92.179086,104 92,103.82091 92,103.6 V 96.4 C 92,96.179086 91.820914,96 91.6,96 H 88.4 C 88.179086,96 88,95.820914 88,95.6 V 92.4 C 88,92.179086 87.820914,92 87.6,92 H 84 v -8 h 3.6 c 0.220914,0 0.4,0.179086 0.4,0.4 v 3.2 c 0,0.220914 0.179086,0.4 0.4,0.4 h 3.2 C 91.820914,88 92,87.820914 92,87.6 V 84.4 C 92,84.179086 92.179086,84 92.4,84 H 96 v 3.6 c 0,0.220914 0.179086,0.4 0.4,0.4 h 3.2 c 0.220914,0 0.4,0.179086 0.4,0.4 V 92 H 96.4 C 96.179086,92 96,92.179086 96,92.4 v 3.2 c 0,0.220914 0.179086,0.4 0.4,0.4 h 3.2 c 0.220914,0 0.4,-0.179086 0.4,-0.4 V 92 h 7.6 c 0.22091,0 0.4,0.179086 0.4,0.4 v 3.2 c 0,0.220914 0.17909,0.4 0.4,0.4 h 11.2 c 0.22091,0 0.4,0.179086 0.4,0.4 v 3.2 c 0,0.220914 0.17909,0.4 0.4,0.4 h 3.6 v 3.6 c 0,0.22091 -0.17909,0.4 -0.4,0.4 h -7.2 c -0.22091,0 -0.4,0.17909 -0.4,0.4 v 7.2 c 0,0.22091 0.17909,0.4 0.4,0.4 h 3.2 c 0.22091,0 0.4,0.17909 0.4,0.4 v 3.2 c 0,0.22091 0.17909,0.4 0.4,0.4 h 3.6 v 4 h -7.6 c -0.22091,0 -0.4,0.17909 -0.4,0.4 v 3.2 c 0,0.22091 0.17909,0.4 0.4,0.4 h 3.2 c 0.22091,0 0.4,0.17909 0.4,0.4 v 3.2 c 0,0.22091 -0.17909,0.4 -0.4,0.4 h -3.2 c -0.22091,0 -0.4,0.17909 -0.4,0.4 v 3.2 c 0,0.22091 -0.17909,0.4 -0.4,0.4 z m -36,0 H 68.4 C 68.179086,132 68,131.82091 68,131.6 V 128 h 3.6 c 0.220914,0 0.4,-0.17909 0.4,-0.4 v -3.2 c 0,-0.22091 -0.179086,-0.4 -0.4,-0.4 h -3.2 c -0.220914,0 -0.4,0.17909 -0.4,0.4 v 3.6 h -7.6 c -0.220914,0 -0.4,0.17909 -0.4,0.4 v 3.2 c 0,0.22091 -0.179086,0.4 -0.4,0.4 H 48.4 c -0.220914,0 -0.4,-0.17909 -0.4,-0.4 v -11.2 c 0,-0.22091 0.179086,-0.4 0.4,-0.4 H 52 v 7.6 c 0,0.22091 0.179086,0.4 0.4,0.4 h 3.2 c 0.220914,0 0.4,-0.17909 0.4,-0.4 v -3.2 c 0,-0.22091 0.179086,-0.4 0.4,-0.4 h 7.2 c 0.220914,0 0.4,-0.17909 0.4,-0.4 v -7.2 c 0,-0.22091 -0.179086,-0.4 -0.4,-0.4 h -7.2 c -0.220914,0 -0.4,0.17909 -0.4,0.4 v 3.2 c 0,0.22091 -0.179086,0.4 -0.4,0.4 H 52 v -8 h 15.6 c 0.220914,0 0.4,-0.17909 0.4,-0.4 v -3.2 c 0,-0.22091 0.179086,-0.4 0.4,-0.4 h 3.2 c 0.220914,0 0.4,0.17909 0.4,0.4 v 7.2 c 0,0.22091 -0.179086,0.4 -0.4,0.4 h -3.2 c -0.220914,0 -0.4,0.17909 -0.4,0.4 v 3.2 c 0,0.22091 0.179086,0.4 0.4,0.4 h 7.2 c 0.220914,0 0.4,-0.17909 0.4,-0.4 v -7.2 c 0,-0.22091 0.179086,-0.4 0.4,-0.4 h 3.2 c 0.220914,0 0.4,-0.17909 0.4,-0.4 V 108 h 3.6 c 0.220914,0 0.4,0.17909 0.4,0.4 v 7.2 c 0,0.22091 0.179086,0.4 0.4,0.4 H 88 v 3.6 c 0,0.22091 -0.179086,0.4 -0.4,0.4 h -7.2 c -0.220914,0 -0.4,0.17909 -0.4,0.4 v 11.2 c 0,0.22091 -0.179086,0.4 -0.4,0.4 z m -36,0 H 16.4 c -0.220914,0 -0.4,-0.17909 -0.4,-0.4 v -27.2 c 0,-0.22091 0.179086,-0.4 0.4,-0.4 h 27.2 c 0.220914,0 0.4,0.17909 0.4,0.4 v 27.2 c 0,0.22091 -0.179086,0.4 -0.4,0.4 z m 48,-4 h -3.2 c -0.220914,0 -0.4,-0.17909 -0.4,-0.4 v -3.2 c 0,-0.22091 0.179086,-0.4 0.4,-0.4 h 3.2 c 0.220914,0 0.4,0.17909 0.4,0.4 v 3.2 c 0,0.22091 -0.179086,0.4 -0.4,0.4 z M 40,127.6 V 108.4 C 40,108.17909 39.820914,108 39.6,108 H 20.4 c -0.220914,0 -0.4,0.17909 -0.4,0.4 v 19.2 c 0,0.22091 0.179086,0.4 0.4,0.4 h 19.2 c 0.220914,0 0.4,-0.17909 0.4,-0.4 z m 91.6,-3.6 h -7.2 c -0.22091,0 -0.4,-0.17909 -0.4,-0.4 V 120 h 3.6 c 0.22091,0 0.4,-0.17909 0.4,-0.4 V 116 h 3.6 c 0.22091,0 0.4,0.17909 0.4,0.4 v 7.2 c 0,0.22091 -0.17909,0.4 -0.4,0.4 z M 112,123.6 v -7.2 c 0,-0.22091 -0.17909,-0.4 -0.4,-0.4 h -7.2 c -0.22091,0 -0.4,0.17909 -0.4,0.4 v 7.2 c 0,0.22091 0.17909,0.4 0.4,0.4 h 7.2 c 0.22091,0 0.4,-0.17909 0.4,-0.4 z M 35.6,124 H 24.4 c -0.220914,0 -0.4,-0.17909 -0.4,-0.4 v -11.2 c 0,-0.22091 0.179086,-0.4 0.4,-0.4 h 11.2 c 0.220914,0 0.4,0.17909 0.4,0.4 v 11.2 c 0,0.22091 -0.179086,0.4 -0.4,0.4 z m 92,-8 H 124 v -7.6 c 0,-0.22091 0.17909,-0.4 0.4,-0.4 h 3.6 v 8 z M 112,111.6 v -11.2 c 0,-0.22091 -0.17909,-0.4 -0.4,-0.4 h -11.2 c -0.22091,0 -0.4,0.17909 -0.4,0.4 v 11.2 c 0,0.22091 0.17909,0.4 0.4,0.4 h 11.2 c 0.22091,0 0.4,-0.17909 0.4,-0.4 z M 51.6,112 h -3.2 c -0.220914,0 -0.4,-0.17909 -0.4,-0.4 v -3.2 c 0,-0.22091 0.179086,-0.4 0.4,-0.4 H 52 v 4 z m 80,-4 H 128 v -8 h 3.6 c 0.22091,0 0.4,0.17909 0.4,0.4 v 7.2 c 0,0.22091 -0.17909,0.4 -0.4,0.4 z m -24,0 h -3.2 c -0.22091,0 -0.4,-0.17909 -0.4,-0.4 v -3.2 c 0,-0.22091 0.17909,-0.4 0.4,-0.4 h 3.2 c 0.22091,0 0.4,0.17909 0.4,0.4 v 3.2 c 0,0.22091 -0.17909,0.4 -0.4,0.4 z m -28,0 h -3.2 c -0.220914,0 -0.4,-0.17909 -0.4,-0.4 v -7.2 c 0,-0.22091 -0.179086,-0.4 -0.4,-0.4 h -3.2 c -0.220914,0 -0.4,0.17909 -0.4,0.4 v 3.2 c 0,0.22091 -0.179086,0.4 -0.4,0.4 H 68.4 C 68.179086,104 68,103.82091 68,103.6 V 96 h 7.6 C 75.820914,96 76,95.820914 76,95.6 V 92.4 C 76,92.179086 75.820914,92 75.6,92 H 68.4 C 68.179086,92 68,92.179086 68,92.4 V 96 H 60.4 C 60.179086,96 60,95.820914 60,95.6 V 92 h 3.6 C 63.820914,92 64,91.820914 64,91.6 V 84.4 C 64,84.179086 63.820914,84 63.6,84 H 52.4 C 52.179086,84 52,84.179086 52,84.4 v 3.2 C 52,87.820914 51.820914,88 51.6,88 H 44 v -4 h 3.6 C 47.820914,84 48,83.820914 48,83.6 V 80 h 3.6 C 51.820914,80 52,79.820914 52,79.6 V 76.4 C 52,76.179086 51.820914,76 51.6,76 H 48.4 C 48.179086,76 48,76.179086 48,76.4 V 80 H 44 V 76.4 C 44,76.179086 43.820914,76 43.6,76 H 40.4 C 40.179086,76 40,76.179086 40,76.4 v 3.2 c 0,0.220914 0.179086,0.4 0.4,0.4 H 44 v 4 H 36 V 68.4 C 36,68.179086 35.820914,68 35.6,68 H 32 V 56.4 C 32,56.179086 31.820914,56 31.6,56 H 28.4 C 28.179086,56 28,56.179086 28,56.4 v 3.2 C 28,59.820914 27.820914,60 27.6,60 H 24 V 56.4 C 24,56.179086 23.820914,56 23.6,56 H 16.4 C 16.179086,56 16,55.820914 16,55.6 V 48.4 C 16,48.179086 16.179086,48 16.4,48 h 11.2 c 0.220914,0 0.4,0.179086 0.4,0.4 v 3.2 c 0,0.220914 0.179086,0.4 0.4,0.4 h 7.2 C 35.820914,52 36,51.820914 36,51.6 V 48.4 C 36,48.179086 36.179086,48 36.4,48 h 7.2 c 0.220914,0 0.4,0.179086 0.4,0.4 V 52 H 40.4 C 40.179086,52 40,52.179086 40,52.4 V 56 H 36.4 C 36.179086,56 36,56.179086 36,56.4 v 3.2 c 0,0.220914 0.179086,0.4 0.4,0.4 H 40 v 3.6 c 0,0.220914 0.179086,0.4 0.4,0.4 h 3.2 C 43.820914,64 44,63.820914 44,63.6 V 60.4 C 44,60.179086 43.820914,60 43.6,60 H 40 v -4 h 3.6 C 43.820914,56 44,55.820914 44,55.6 V 52 h 3.6 C 47.820914,52 48,51.820914 48,51.6 V 32.4 C 48,32.179086 48.179086,32 48.4,32 h 3.2 c 0.220914,0 0.4,0.179086 0.4,0.4 v 3.2 c 0,0.220914 0.179086,0.4 0.4,0.4 H 60 v 7.6 C 60,43.820914 59.820914,44 59.6,44 H 56 V 40.4 C 56,40.179086 55.820914,40 55.6,40 H 52.4 C 52.179086,40 52,40.179086 52,40.4 v 3.2 c 0,0.220914 0.179086,0.4 0.4,0.4 H 56 v 7.6 C 56,51.820914 55.820914,52 55.6,52 H 52.4 C 52.179086,52 52,52.179086 52,52.4 v 3.2 c 0,0.220914 0.179086,0.4 0.4,0.4 h 7.2 c 0.220914,0 0.4,0.179086 0.4,0.4 v 3.2 c 0,0.220914 0.179086,0.4 0.4,0.4 h 3.2 C 63.820914,60 64,59.820914 64,59.6 V 52.4 C 64,52.179086 63.820914,52 63.6,52 H 60.4 C 60.179086,52 60,51.820914 60,51.6 V 48.4 C 60,48.179086 60.179086,48 60.4,48 h 7.2 c 0.220914,0 0.4,0.179086 0.4,0.4 v 7.2 c 0,0.220914 0.179086,0.4 0.4,0.4 h 3.2 C 71.820914,56 72,55.820914 72,55.6 V 48.4 C 72,48.179086 72.179086,48 72.4,48 H 76 v 3.6 c 0,0.220914 0.179086,0.4 0.4,0.4 h 3.2 C 79.820914,52 80,51.820914 80,51.6 V 48.4 C 80,48.179086 79.820914,48 79.6,48 H 76 v -4 h 3.6 C 79.820914,44 80,43.820914 80,43.6 V 40.4 C 80,40.179086 80.179086,40 80.4,40 h 3.2 c 0.220914,0 0.4,0.179086 0.4,0.4 V 55.6 C 84,55.820914 83.820914,56 83.6,56 H 80.4 C 80.179086,56 80,56.179086 80,56.4 V 60 H 68.4 C 68.179086,60 68,60.179086 68,60.4 v 3.2 C 68,63.820914 67.820914,64 67.6,64 H 60.4 C 60.179086,64 60,64.179086 60,64.4 V 72 H 56.4 C 56.179086,72 56,72.179086 56,72.4 v 7.2 c 0,0.220914 0.179086,0.4 0.4,0.4 h 11.2 c 0.220914,0 0.4,0.179086 0.4,0.4 v 7.2 c 0,0.220914 0.179086,0.4 0.4,0.4 h 3.2 C 71.820914,88 72,87.820914 72,87.6 V 80.4 C 72,80.179086 72.179086,80 72.4,80 h 3.2 c 0.220914,0 0.4,0.179086 0.4,0.4 v 3.2 c 0,0.220914 0.179086,0.4 0.4,0.4 H 80 v 7.6 c 0,0.220914 0.179086,0.4 0.4,0.4 H 84 v 7.6 c 0,0.220914 0.179086,0.4 0.4,0.4 h 3.2 c 0.220914,0 0.4,0.17909 0.4,0.4 v 3.2 c 0,0.22091 -0.179086,0.4 -0.4,0.4 h -7.2 c -0.220914,0 -0.4,0.17909 -0.4,0.4 v 3.6 z m -16,0 h -3.2 c -0.220914,0 -0.4,-0.17909 -0.4,-0.4 v -3.2 c 0,-0.22091 0.179086,-0.4 0.4,-0.4 h 3.2 c 0.220914,0 0.4,0.17909 0.4,0.4 v 3.2 c 0,0.22091 -0.179086,0.4 -0.4,0.4 z m -8,0 H 52 v -3.6 c 0,-0.22091 -0.179086,-0.4 -0.4,-0.4 h -3.2 c -0.220914,0 -0.4,-0.17909 -0.4,-0.4 v -3.2 c 0,-0.22091 0.179086,-0.4 0.4,-0.4 h 7.2 c 0.220914,0 0.4,0.17909 0.4,0.4 v 7.2 c 0,0.22091 -0.179086,0.4 -0.4,0.4 z m 72,-8 H 124 v -3.6 c 0,-0.220914 0.17909,-0.4 0.4,-0.4 h 3.2 c 0.22091,0 0.4,0.179086 0.4,0.4 v 3.6 z m -84,0 H 36.4 C 36.179086,100 36,99.820914 36,99.6 V 96.4 C 36,96.179086 35.820914,96 35.6,96 H 32.4 C 32.179086,96 32,96.179086 32,96.4 v 3.2 c 0,0.220914 -0.179086,0.4 -0.4,0.4 H 28.4 C 28.179086,100 28,99.820914 28,99.6 V 96.4 C 28,96.179086 27.820914,96 27.6,96 H 24 V 92.4 C 24,92.179086 23.820914,92 23.6,92 H 16.4 C 16.179086,92 16,91.820914 16,91.6 V 88.4 C 16,88.179086 16.179086,88 16.4,88 h 3.2 C 19.820914,88 20,87.820914 20,87.6 V 84 h 8 v 7.6 c 0,0.220914 0.179086,0.4 0.4,0.4 H 40 v 3.6 c 0,0.220914 0.179086,0.4 0.4,0.4 h 3.2 c 0.220914,0 0.4,0.179086 0.4,0.4 v 3.2 c 0,0.220914 -0.179086,0.4 -0.4,0.4 z m -20,0 H 16.4 C 16.179086,100 16,99.820914 16,99.6 V 96.4 C 16,96.179086 16.179086,96 16.4,96 H 24 v 3.6 c 0,0.220914 -0.179086,0.4 -0.4,0.4 z m 28,-4 H 48.4 C 48.179086,96 48,95.820914 48,95.6 V 92.4 C 48,92.179086 48.179086,92 48.4,92 h 3.2 c 0.220914,0 0.4,0.179086 0.4,0.4 v 3.2 c 0,0.220914 -0.179086,0.4 -0.4,0.4 z m 80,-4 h -3.2 C 128.17909,92 128,91.820914 128,91.6 V 88.4 C 128,88.179086 127.82091,88 127.6,88 H 120 v -3.6 c 0,-0.220914 0.17909,-0.4 0.4,-0.4 h 7.2 c 0.22091,0 0.4,-0.179086 0.4,-0.4 v -3.2 c 0,-0.220914 0.17909,-0.4 0.4,-0.4 h 3.2 c 0.22091,0 0.4,0.179086 0.4,0.4 v 11.2 c 0,0.220914 -0.17909,0.4 -0.4,0.4 z m -12,0 h -7.2 C 112.17909,92 112,91.820914 112,91.6 V 88 h 8 v 3.6 c 0,0.220914 -0.17909,0.4 -0.4,0.4 z m -60,0 H 56.4 C 56.179086,92 56,91.820914 56,91.6 V 88.4 C 56,88.179086 56.179086,88 56.4,88 h 3.2 c 0.220914,0 0.4,0.179086 0.4,0.4 V 92 Z m -16,0 H 40 V 88.4 C 40,88.179086 40.179086,88 40.4,88 H 44 v 3.6 c 0,0.220914 -0.179086,0.4 -0.4,0.4 z m 68,-4 h -7.2 c -0.22091,0 -0.4,-0.179086 -0.4,-0.4 v -7.2 c 0,-0.220914 -0.17909,-0.4 -0.4,-0.4 h -3.2 c -0.22091,0 -0.4,0.179086 -0.4,0.4 v 3.2 c 0,0.220914 -0.179086,0.4 -0.4,0.4 H 96 V 80.4 C 96,80.179086 95.820914,80 95.6,80 H 92.4 C 92.179086,80 92,79.820914 92,79.6 V 68.4 C 92,68.179086 91.820914,68 91.6,68 H 88 V 64.4 C 88,64.179086 88.179086,64 88.4,64 h 3.2 C 91.820914,64 92,63.820914 92,63.6 V 60.4 C 92,60.179086 91.820914,60 91.6,60 H 88.4 C 88.179086,60 88,59.820914 88,59.6 V 56.4 C 88,56.179086 88.179086,56 88.4,56 h 3.2 C 91.820914,56 92,55.820914 92,55.6 V 52.4 C 92,52.179086 92.179086,52 92.4,52 h 3.2 C 95.820914,52 96,51.820914 96,51.6 V 48.4 C 96,48.179086 96.179086,48 96.4,48 h 19.2 c 0.22091,0 0.4,0.179086 0.4,0.4 v 3.2 c 0,0.220914 -0.17909,0.4 -0.4,0.4 h -3.2 c -0.22091,0 -0.4,0.179086 -0.4,0.4 v 3.2 c 0,0.220914 0.17909,0.4 0.4,0.4 H 124 v 3.6 c 0,0.220914 -0.17909,0.4 -0.4,0.4 h -3.2 c -0.22091,0 -0.4,0.179086 -0.4,0.4 v 3.2 c 0,0.220914 -0.17909,0.4 -0.4,0.4 h -3.2 c -0.22091,0 -0.4,-0.179086 -0.4,-0.4 v -3.2 c 0,-0.220914 -0.17909,-0.4 -0.4,-0.4 h -3.2 c -0.22091,0 -0.4,0.179086 -0.4,0.4 v 3.2 c 0,0.220914 -0.17909,0.4 -0.4,0.4 H 108 V 56.4 C 108,56.179086 107.82091,56 107.6,56 H 104 v -3.6 c 0,-0.220914 -0.17909,-0.4 -0.4,-0.4 h -3.2 c -0.22091,0 -0.4,0.179086 -0.4,0.4 V 56 H 96.4 C 96.179086,56 96,56.179086 96,56.4 v 3.2 c 0,0.220914 0.179086,0.4 0.4,0.4 h 3.2 c 0.220914,0 0.4,-0.179086 0.4,-0.4 V 56 h 4 v 8 h -3.6 c -0.22091,0 -0.4,0.179086 -0.4,0.4 v 3.2 c 0,0.220914 0.17909,0.4 0.4,0.4 h 3.2 c 0.22091,0 0.4,-0.179086 0.4,-0.4 V 64 h 4 v 3.6 c 0,0.220914 0.17909,0.4 0.4,0.4 h 3.2 c 0.22091,0 0.4,0.179086 0.4,0.4 v 7.2 c 0,0.220914 0.17909,0.4 0.4,0.4 h 3.2 c 0.22091,0 0.4,0.179086 0.4,0.4 v 3.2 c 0,0.220914 -0.17909,0.4 -0.4,0.4 h -3.2 c -0.22091,0 -0.4,0.179086 -0.4,0.4 V 88 Z m -76,0 H 32.4 C 32.179086,88 32,87.820914 32,87.6 V 84 h 4 v 3.6 c 0,0.220914 -0.179086,0.4 -0.4,0.4 z m 48,-4 H 80 v -8 h 3.6 c 0.220914,0 0.4,0.179086 0.4,0.4 V 84 Z m -52,0 H 28 v -4 h 3.6 c 0.220914,0 0.4,0.179086 0.4,0.4 V 84 Z m -12,0 H 16.4 C 16.179086,84 16,83.820914 16,83.6 V 60.4 C 16,60.179086 16.179086,60 16.4,60 H 24 v 4 H 20.4 C 20.179086,64 20,64.179086 20,64.4 v 3.2 c 0,0.220914 0.179086,0.4 0.4,0.4 H 24 v 4 H 20.4 C 20.179086,72 20,72.179086 20,72.4 v 3.2 c 0,0.220914 0.179086,0.4 0.4,0.4 h 3.2 C 23.820914,76 24,75.820914 24,75.6 V 72 h 3.6 C 27.820914,72 28,71.820914 28,71.6 V 68 h 4 v 7.6 C 32,75.820914 31.820914,76 31.6,76 H 28.4 C 28.179086,76 28,76.179086 28,76.4 V 80 H 20.4 C 20.179086,80 20,80.179086 20,80.4 V 84 Z m 112,-8 h -3.2 c -0.22091,0 -0.4,-0.179086 -0.4,-0.4 v -3.2 c 0,-0.220914 -0.17909,-0.4 -0.4,-0.4 h -3.2 c -0.22091,0 -0.4,-0.179086 -0.4,-0.4 v -3.2 c 0,-0.220914 0.17909,-0.4 0.4,-0.4 h 3.2 c 0.22091,0 0.4,-0.179086 0.4,-0.4 v -3.2 c 0,-0.220914 0.17909,-0.4 0.4,-0.4 h 3.2 c 0.22091,0 0.4,0.179086 0.4,0.4 v 11.2 c 0,0.220914 -0.17909,0.4 -0.4,0.4 z m -52,0 H 72.4 C 72.179086,76 72,75.820914 72,75.6 V 64.4 C 72,64.179086 72.179086,64 72.4,64 H 80 v 3.6 c 0,0.220914 0.179086,0.4 0.4,0.4 H 88 v 3.6 C 88,71.820914 87.820914,72 87.6,72 H 80.4 C 80.179086,72 80,72.179086 80,72.4 V 76 Z m -16,0 H 60.4 C 60.179086,76 60,75.820914 60,75.6 V 72 h 3.6 c 0.220914,0 0.4,0.179086 0.4,0.4 v 3.2 C 64,75.820914 63.820914,76 63.6,76 Z M 52,71.6 V 64.4 C 52,64.179086 52.179086,64 52.4,64 h 3.2 C 55.820914,64 56,63.820914 56,63.6 V 60.4 C 56,60.179086 55.820914,60 55.6,60 H 48.4 C 48.179086,60 48,60.179086 48,60.4 v 11.2 c 0,0.220914 0.179086,0.4 0.4,0.4 h 3.2 c 0.220914,0 0.4,-0.179086 0.4,-0.4 z m -8,0 V 68.4 C 44,68.179086 43.820914,68 43.6,68 H 40.4 C 40.179086,68 40,68.179086 40,68.4 v 3.2 c 0,0.220914 0.179086,0.4 0.4,0.4 h 3.2 C 43.820914,72 44,71.820914 44,71.6 Z M 27.6,68 H 24 v -4 h 3.6 c 0.220914,0 0.4,0.179086 0.4,0.4 V 68 Z m 56,-4 H 80 v -4 h 3.6 c 0.220914,0 0.4,0.179086 0.4,0.4 v 3.2 c 0,0.220914 -0.179086,0.4 -0.4,0.4 z m 48,-4 h -3.2 C 128.17909,60 128,59.820914 128,59.6 V 56.4 C 128,56.179086 127.82091,56 127.6,56 H 124 v -7.6 c 0,-0.220914 0.17909,-0.4 0.4,-0.4 h 7.2 c 0.22091,0 0.4,0.179086 0.4,0.4 v 11.2 c 0,0.220914 -0.17909,0.4 -0.4,0.4 z M 91.6,48 H 88.4 C 88.179086,48 88,47.820914 88,47.6 V 36 h 3.6 c 0.220914,0 0.4,0.179086 0.4,0.4 v 11.2 c 0,0.220914 -0.179086,0.4 -0.4,0.4 z m 40,-4 H 104.4 C 104.17909,44 104,43.820914 104,43.6 V 16.4 c 0,-0.220914 0.17909,-0.4 0.4,-0.4 h 27.2 c 0.22091,0 0.4,0.179086 0.4,0.4 v 27.2 c 0,0.220914 -0.17909,0.4 -0.4,0.4 z m -32,0 H 96.4 C 96.179086,44 96,43.820914 96,43.6 V 36.4 C 96,36.179086 96.179086,36 96.4,36 h 3.2 c 0.220914,0 0.4,0.179086 0.4,0.4 v 7.2 c 0,0.220914 -0.179086,0.4 -0.4,0.4 z m -24,0 H 72.4 C 72.179086,44 72,43.820914 72,43.6 V 40 h 3.6 c 0.220914,0 0.4,0.179086 0.4,0.4 V 44 Z m -8,0 H 64.4 C 64.179086,44 64,43.820914 64,43.6 V 36.4 C 64,36.179086 63.820914,36 63.6,36 H 60 V 28.4 C 60,28.179086 60.179086,28 60.4,28 h 7.2 C 67.820914,28 68,27.820914 68,27.6 V 24.4 C 68,24.179086 68.179086,24 68.4,24 H 72 V 40 H 68.4 C 68.179086,40 68,40.179086 68,40.4 v 3.2 c 0,0.220914 -0.179086,0.4 -0.4,0.4 z m -24,0 H 16.4 C 16.179086,44 16,43.820914 16,43.6 V 16.4 C 16,16.179086 16.179086,16 16.4,16 h 27.2 c 0.220914,0 0.4,0.179086 0.4,0.4 V 43.6 C 44,43.820914 43.820914,44 43.6,44 Z M 128,39.6 V 20.4 c 0,-0.220914 -0.17909,-0.4 -0.4,-0.4 h -19.2 c -0.22091,0 -0.4,0.179086 -0.4,0.4 v 19.2 c 0,0.220914 0.17909,0.4 0.4,0.4 h 19.2 c 0.22091,0 0.4,-0.179086 0.4,-0.4 z m -88,0 V 20.4 C 40,20.179086 39.820914,20 39.6,20 H 20.4 C 20.179086,20 20,20.179086 20,20.4 v 19.2 c 0,0.220914 0.179086,0.4 0.4,0.4 H 39.6 C 39.820914,40 40,39.820914 40,39.6 Z M 123.6,36 H 112.4 C 112.17909,36 112,35.820914 112,35.6 V 24.4 c 0,-0.220914 0.17909,-0.4 0.4,-0.4 h 11.2 c 0.22091,0 0.4,0.179086 0.4,0.4 v 11.2 c 0,0.220914 -0.17909,0.4 -0.4,0.4 z m -36,0 H 84.4 C 84.179086,36 84,35.820914 84,35.6 V 32.4 C 84,32.179086 83.820914,32 83.6,32 H 80.4 C 80.179086,32 80,31.820914 80,31.6 V 16.4 C 80,16.179086 80.179086,16 80.4,16 h 3.2 c 0.220914,0 0.4,0.179086 0.4,0.4 v 7.2 c 0,0.220914 0.179086,0.4 0.4,0.4 h 11.2 c 0.220914,0 0.4,0.179086 0.4,0.4 V 28 H 92.4 C 92.179086,28 92,28.179086 92,28.4 v 3.2 C 92,31.820914 91.820914,32 91.6,32 H 88.4 C 88.179086,32 88,32.179086 88,32.4 V 36 Z m -52,0 H 24.4 C 24.179086,36 24,35.820914 24,35.6 V 24.4 C 24,24.179086 24.179086,24 24.4,24 h 11.2 c 0.220914,0 0.4,0.179086 0.4,0.4 v 11.2 c 0,0.220914 -0.179086,0.4 -0.4,0.4 z m 64,-4 H 96.4 C 96.179086,32 96,31.820914 96,31.6 V 28 h 3.6 c 0.220914,0 0.4,0.179086 0.4,0.4 v 3.2 c 0,0.220914 -0.179086,0.4 -0.4,0.4 z m -44,-4 H 52.4 C 52.179086,28 52,27.820914 52,27.6 V 24 h 3.6 c 0.220914,0 0.4,0.179086 0.4,0.4 v 3.2 c 0,0.220914 -0.179086,0.4 -0.4,0.4 z m 20,-4 H 72 V 16.4 C 72,16.179086 72.179086,16 72.4,16 h 3.2 c 0.220914,0 0.4,0.179086 0.4,0.4 v 7.2 c 0,0.220914 -0.179086,0.4 -0.4,0.4 z m -12,0 H 60.4 C 60.179086,24 60,23.820914 60,23.6 V 20.4 C 60,20.179086 59.820914,20 59.6,20 H 52.4 C 52.179086,20 52,20.179086 52,20.4 V 24 H 48.4 C 48.179086,24 48,23.820914 48,23.6 V 16.4 C 48,16.179086 48.179086,16 48.4,16 h 15.2 c 0.220914,0 0.4,0.179086 0.4,0.4 v 7.2 c 0,0.220914 -0.179086,0.4 -0.4,0.4 z m 28,-4 H 88.4 C 88.179086,20 88,19.820914 88,19.6 V 16.4 C 88,16.179086 88.179086,16 88.4,16 h 3.2 c 0.220914,0 0.4,0.179086 0.4,0.4 v 3.2 c 0,0.220914 -0.179086,0.4 -0.4,0.4 z" />
    </g>
  </g>
</svg>
